<?xml version="1.0" standalone="no"?>
<!DOCTYPE svg PUBLIC "-//W3C//DTD SVG 20010904//EN"
 "http://www.w3.org/TR/2001/REC-SVG-20010904/DTD/svg10.dtd">
<svg version="1.0" xmlns="http://www.w3.org/2000/svg"
 width="1542.000000pt" height="1542.000000pt" viewBox="0 0 1542.000000 1542.000000"
 preserveAspectRatio="xMidYMid meet">
<metadata>
Created by potrace 1.11, written by Peter Selinger 2001-2013
</metadata>
<g transform="translate(0.000000,1542.000000) scale(0.100000,-0.100000)"
fill="#000000" stroke="none">
<path d="M7465 15414 c-479 -21 -884 -68 -1293 -150 -1852 -374 -3502 -1421
-4645 -2949 -406 -542 -748 -1159 -1002 -1805 -462 -1176 -623 -2482 -465
-3768 173 -1401 744 -2751 1634 -3857 333 -415 777 -859 1191 -1191 1110 -892
2454 -1461 3857 -1634 279 -34 508 -50 818 -57 1018 -21 2021 157 2950 522
259 102 409 169 680 306 1179 595 2187 1487 2924 2587 694 1035 1121 2204
1256 3437 33 308 43 508 43 855 0 561 -42 993 -148 1525 -298 1488 -1027 2845
-2106 3924 -1324 1324 -3062 2114 -4929 2241 -160 10 -639 19 -765 14z m342
-3585 c538 -74 1301 -711 2055 -1714 826 -1100 1453 -2391 1642 -3380 44 -231
51 -310 51 -560 0 -266 -14 -370 -74 -548 -132 -389 -439 -641 -1061 -874
-929 -347 -2325 -493 -3600 -377 -1192 108 -2181 417 -2602 812 -137 130 -216
251 -277 425 -169 483 -86 1185 244 2057 550 1458 1709 3103 2685 3812 209
151 389 248 572 307 150 47 240 57 365 40z"/>
</g>
</svg>
